<svg xmlns:dc="http://purl.org/dc/elements/1.1/" xmlns:cc="http://creativecommons.org/ns#" xmlns:rdf="http://www.w3.org/1999/02/22-rdf-syntax-ns#" xmlns:svg="http://www.w3.org/2000/svg" xmlns="http://www.w3.org/2000/svg" xmlns:sodipodi="http://sodipodi.sourceforge.net/DTD/sodipodi-0.dtd" xmlns:inkscape="http://www.inkscape.org/namespaces/inkscape" version="1.1" x="0px" y="0px" viewBox="0 0 100 125"><g transform="translate(0,-952.36218)"><path style="" d="M 25 5 C 13.92 5 5 13.92 5 25 L 5 75 C 5 86.08 13.92 95 25 95 L 75 95 C 86.08 95 95 86.08 95 75 L 95 25 C 95 13.92 86.08 5 75 5 L 25 5 z M 59.957031 20 C 64.685631 19.9562 66.820331 25.898387 63.144531 28.873047 L 37.791016 50 L 63.144531 71.123047 C 68.385031 75.372347 61.876953 83.180869 56.751953 78.792969 L 26.794922 53.832031 C 24.401622 51.836131 24.401622 48.160012 26.794922 46.164062 L 56.751953 21.203125 C 57.645153 20.436945 58.780231 20.01085 59.957031 20 z " transform="translate(0,952.36218)" fill="#000000" fill-opacity="1" stroke-width="0"/></g><text x="0" y="115" fill="#000000" font-size="5px" font-weight="bold" font-family="'Helvetica Neue', Helvetica, Arial-Unicode, Arial, Sans-serif">Created by Gonzalo Bravo</text><text x="0" y="120" fill="#000000" font-size="5px" font-weight="bold" font-family="'Helvetica Neue', Helvetica, Arial-Unicode, Arial, Sans-serif">from the Noun Project</text></svg>