<svg xmlns:dc="http://purl.org/dc/elements/1.1/" xmlns:cc="http://creativecommons.org/ns#" xmlns:rdf="http://www.w3.org/1999/02/22-rdf-syntax-ns#" xmlns:svg="http://www.w3.org/2000/svg" xmlns="http://www.w3.org/2000/svg" xmlns:sodipodi="http://sodipodi.sourceforge.net/DTD/sodipodi-0.dtd" xmlns:inkscape="http://www.inkscape.org/namespaces/inkscape" version="1.1" x="0px" y="0px" viewBox="0 0 100 125"><g transform="translate(0,-952.36218)"><path style="" d="M 25 5 C 13.92 5 5 13.92 5 25 L 5 75 C 5 86.08 13.92 95 25 95 L 75 95 C 86.08 95 95 86.08 95 75 L 95 25 C 95 13.92 86.08 5 75 5 L 25 5 z M 40.042969 20 C 41.219769 20.01085 42.354847 20.436945 43.248047 21.203125 L 73.205078 46.164062 C 75.598378 48.160012 75.598378 51.836131 73.205078 53.832031 L 43.248047 78.792969 C 38.123047 83.180869 31.614969 75.372347 36.855469 71.123047 L 62.208984 50 L 36.855469 28.873047 C 33.179669 25.898387 35.314369 19.9562 40.042969 20 z " transform="translate(0,952.36218)" fill="#000000" fill-opacity="1" stroke-width="0"/></g><text x="0" y="115" fill="#000000" font-size="5px" font-weight="bold" font-family="'Helvetica Neue', Helvetica, Arial-Unicode, Arial, Sans-serif">Created by Gonzalo Bravo</text><text x="0" y="120" fill="#000000" font-size="5px" font-weight="bold" font-family="'Helvetica Neue', Helvetica, Arial-Unicode, Arial, Sans-serif">from the Noun Project</text></svg>