<?xml version="1.0" encoding="utf-8"?>
<!-- Generator: Adobe Illustrator 19.2.1, SVG Export Plug-In . SVG Version: 6.00 Build 0)  -->
<svg version="1.1"
	 id="Layer_1" xmlns:cc="http://creativecommons.org/ns#" xmlns:dc="http://purl.org/dc/elements/1.1/" xmlns:inkscape="http://www.inkscape.org/namespaces/inkscape" xmlns:rdf="http://www.w3.org/1999/02/22-rdf-syntax-ns#" xmlns:sodipodi="http://sodipodi.sourceforge.net/DTD/sodipodi-0.dtd" xmlns:svg="http://www.w3.org/2000/svg"
	 xmlns="http://www.w3.org/2000/svg" xmlns:xlink="http://www.w3.org/1999/xlink" x="0px" y="0px" viewBox="0 0 90 90"
	 style="enable-background:new 0 0 90 90;" xml:space="preserve">
<g transform="translate(0,-952.36218)">
	<path d="M20,952.4c-11.1,0-20,8.9-20,20v50c0,11.1,8.9,20,20,20h50c11.1,0,20-8.9,20-20v-50c0-11.1-8.9-20-20-20H20z M35,967.4
		c1.2,0,2.3,0.4,3.2,1.2l30,25c2.4,2,2.4,5.7,0,7.7l-30,25c-5.1,4.4-11.6-3.4-6.4-7.7l25.4-21.1l-25.4-21.1
		C28.2,973.3,30.3,967.3,35,967.4z"/>
</g>
</svg>
